<svg width="28" height="39" viewBox="0 0 28 39" fill="none" xmlns="http://www.w3.org/2000/svg">
<path id="Icon" d="M14.0002 2H8.16683C6.61973 2 5.136 2.61458 4.04204 3.70854C2.94808 4.80251 2.3335 6.28624 2.3335 7.83333C2.3335 9.38043 2.94808 10.8642 4.04204 11.9581C5.136 13.0521 6.61973 13.6667 8.16683 13.6667M14.0002 2V13.6667M14.0002 2H19.8335C20.5995 2 21.3581 2.15088 22.0658 2.44404C22.7735 2.73719 23.4166 3.16687 23.9583 3.70854C24.5 4.25022 24.9296 4.89328 25.2228 5.60101C25.5159 6.30875 25.6668 7.06729 25.6668 7.83333C25.6668 8.59938 25.5159 9.35792 25.2228 10.0657C24.9296 10.7734 24.5 11.4164 23.9583 11.9581C23.4166 12.4998 22.7735 12.9295 22.0658 13.2226C21.3581 13.5158 20.5995 13.6667 19.8335 13.6667M14.0002 13.6667H8.16683M14.0002 13.6667H19.8335M14.0002 13.6667V25.3333M8.16683 13.6667C6.61973 13.6667 5.136 14.2812 4.04204 15.3752C2.94808 16.4692 2.3335 17.9529 2.3335 19.5C2.3335 21.0471 2.94808 22.5308 4.04204 23.6248C5.136 24.7188 6.61973 25.3333 8.16683 25.3333M19.8335 13.6667C19.0675 13.6667 18.3089 13.8175 17.6012 14.1107C16.8934 14.4039 16.2504 14.8335 15.7087 15.3752C15.167 15.9169 14.7374 16.5599 14.4442 17.2677C14.151 17.9754 14.0002 18.734 14.0002 19.5C14.0002 20.266 14.151 21.0246 14.4442 21.7323C14.7374 22.4401 15.167 23.0831 15.7087 23.6248C16.2504 24.1665 16.8934 24.5961 17.6012 24.8893C18.3089 25.1824 19.0675 25.3333 19.8335 25.3333C20.5995 25.3333 21.3581 25.1824 22.0658 24.8893C22.7735 24.5961 23.4166 24.1665 23.9583 23.6248C24.5 23.0831 24.9296 22.4401 25.2228 21.7323C25.5159 21.0246 25.6668 20.266 25.6668 19.5C25.6668 18.734 25.5159 17.9754 25.2228 17.2677C24.9296 16.5599 24.5 15.9169 23.9583 15.3752C23.4166 14.8335 22.7735 14.4039 22.0658 14.1107C21.3581 13.8175 20.5995 13.6667 19.8335 13.6667ZM8.16683 25.3333C6.61973 25.3333 5.136 25.9479 4.04204 27.0419C2.94808 28.1358 2.3335 29.6196 2.3335 31.1667C2.3335 32.7138 2.94808 34.1975 4.04204 35.2915C5.136 36.3854 6.61973 37 8.16683 37C9.71393 37 11.1977 36.3854 12.2916 35.2915C13.3856 34.1975 14.0002 32.7138 14.0002 31.1667V25.3333M8.16683 25.3333H14.0002" stroke="#1E1E1E" stroke-width="3.5" stroke-linecap="round" stroke-linejoin="round"/>
</svg>
